<?xml version="1.0" encoding="utf-8"?>
<!-- Generator: Adobe Illustrator 22.1.0, SVG Export Plug-In . SVG Version: 6.00 Build 0)  -->
<svg version="1.1" id="Layer_1" xmlns="http://www.w3.org/2000/svg" xmlns:xlink="http://www.w3.org/1999/xlink" x="0px" y="0px"
	 viewBox="0 0 48 48" style="enable-background:new 0 0 48 48;" xml:space="preserve">
<g>
	<g>
		<polygon points="45.5,22.4 37.2,36.1 36.9,36.5 30.1,29.9 34.8,22.4 		"/>
		<path d="M30.5,43.4C27,45.8,22.7,47,17.7,47C7.6,47,1,41.5,1,33.2c0-5.3,3.1-9.2,7.4-11.5c0,0,0,0,0,0c0.2-0.1,4.4-2.5,9.9-3.4
			l0,0c1.1,1.3,2.6,2.7,4.6,4.7l1.4,1.4c-0.2,0-5.2,0.7-9.6,3.5c-1.9,1.1-3.7,3.1-3.7,5.1c0,3,3,5.4,7,5.4c1.7,0,4.1-0.6,5.9-1.5"/>
	</g>
	<g>
		<path d="M35.2,15.1h-9.9c-0.3-3.1-2-4.9-4.5-4.9c-2.4,0-4.2,1.6-4.2,4.1c0,1.4,0.6,2.6,1.7,4c-5.5,0.9-9.7,3.3-9.9,3.4
			c-1.8-2.6-2.6-5-2.6-7.7c0-7,5.7-12.8,14.7-12.8C29.2,1.3,34.5,6.7,35.2,15.1z"/>
		<path d="M36.9,36.5l-6.8-6.6l-5.8-5.7c-0.2,0-5.2,0.7-9.6,3.5L17,30l6.8,6.8l6.6,6.6l2.8,2.7h13.5L36.9,36.5z"/>
	</g>
</g>
</svg>
